M48
; DRILL file KiCad 10.0.0 date 2026-06-05T15:02:46
; FORMAT={-:-/ absolute / inch / decimal}
; #@! TF.CreationDate,2026-06-05T15:02:46-07:00
; #@! TF.GenerationSoftware,Kicad,Pcbnew,10.0.0
; #@! TF.FileFunction,Plated,1,4,PTH
FMAT,2
INCH
; #@! TA.AperFunction,Plated,PTH,ViaDrill
T1C0.0118
; #@! TA.AperFunction,Plated,PTH,ComponentDrill
T2C0.0276
; #@! TA.AperFunction,Plated,PTH,ComponentDrill
T3C0.0315
; #@! TA.AperFunction,Plated,PTH,ComponentDrill
T4C0.0354
; #@! TA.AperFunction,Plated,PTH,ComponentDrill
T5C0.0394
; #@! TA.AperFunction,Plated,PTH,ComponentDrill
T6C0.0433
; #@! TA.AperFunction,Plated,PTH,ComponentDrill
T7C0.0512
; #@! TA.AperFunction,Plated,PTH,ComponentDrill
T8C0.1260
%
G90
G05
T1
X5.1201Y-2.8917
X5.3543Y-2.8937
X5.4134Y-3.9508
X5.4134Y-4.3504
X5.5669Y-3.7382
X5.9193Y-4.1398
X6.1024Y-2.7756
X6.1024Y-2.874
X6.1024Y-2.9724
X6.1024Y-4.1535
X6.122Y-4.2913
X6.122Y-4.4094
X6.122Y-4.4882
X6.2795Y-2.815
X6.311Y-4.2126
X6.3189Y-2.9724
X6.3189Y-4.252
X6.3189Y-4.252
X6.3189Y-4.4882
X6.374Y-3.7835
X6.3976Y-2.5984
X6.3976Y-3.1496
X6.3976Y-4.1142
X6.3996Y-3.5453
X6.437Y-4.626
X6.4409Y-3.061
X6.4961Y-2.815
X6.4961Y-4.3307
X6.5157Y-3.6811
X6.5551Y-2.8937
X6.5606Y-4.4236
X6.5748Y-3.1496
X6.5748Y-4.1339
X6.7913Y-2.6378
X6.7913Y-3.1496
X6.7913Y-4.1535
X6.7913Y-4.6457
X7.3228Y-3.0512
X7.3228Y-4.2323
X7.3228Y-4.5669
X7.4016Y-2.7165
T2
X4.6447Y-2.4409
X4.6457Y-4.9409
X4.8415Y-2.4409
X4.8425Y-4.9409
X5.8061Y-4.2904
X5.8061Y-4.4872
X5.8071Y-2.7746
X5.8071Y-2.9715
X6.003Y-4.2904
X6.003Y-4.4872
X6.0039Y-2.7746
X6.0039Y-2.9715
X6.2843Y-3.3165
X6.2843Y-3.5134
X6.3039Y-3.7201
X6.3039Y-3.9169
X7.2037Y-4.1695
X7.2047Y-2.6537
X7.3425Y-3.6811
X7.3425Y-3.878
X7.4006Y-4.1695
X7.4016Y-2.6537
T3
X4.3241Y-3.6811
X4.4225Y-3.6811
X4.4488Y-5.0528
X4.4488Y-5.4528
X4.5472Y-2.8346
X4.5472Y-4.7638
X4.9031Y-5.0528
X4.9031Y-5.4528
X4.9102Y-3.3465
X4.9102Y-3.9465
X4.9472Y-2.8346
X4.9472Y-4.7638
X5.0102Y-3.3465
X5.0102Y-3.9465
X5.3559Y-5.0528
X5.3559Y-5.4528
X5.6102Y-3.3465
X5.6102Y-3.9465
X5.8102Y-3.3465
X5.8102Y-3.9465
X5.8374Y-5.0528
X5.8374Y-5.4528
X6.0874Y-3.3559
X6.0874Y-3.4543
X6.0874Y-3.7988
X6.0874Y-3.8972
X6.4961Y-3.4843
X6.7457Y-2.4874
X6.7457Y-3.264
X6.7478Y-3.9923
X6.751Y-4.7797
X6.8961Y-3.4843
X7.0016Y-3.4843
X7.1457Y-2.4874
X7.1457Y-3.264
X7.1478Y-3.9923
X7.151Y-4.7797
X7.4016Y-3.4843
T4
X4.626Y-5.3677
X4.726Y-5.3677
X5.0575Y-5.3677
X5.1575Y-5.3677
X5.5406Y-5.3677
X5.6406Y-5.3677
X6.0524Y-5.3677
X6.1524Y-5.3677
T5
X4.5669Y-3.8732
X4.5669Y-3.9732
X4.5669Y-4.1882
X4.5669Y-4.2882
X5.143Y-2.5394
X5.1772Y-4.7047
X5.3399Y-2.5394
X5.374Y-4.7047
X6.726Y-3.6992
X6.726Y-3.7992
X6.826Y-3.6992
X6.826Y-3.7992
X6.926Y-3.6992
X6.926Y-3.7992
X7.026Y-3.6992
X7.026Y-3.7992
X7.126Y-3.6992
X7.126Y-3.7992
T6
X4.5276Y-3.1451
X4.5276Y-3.5451
X4.5472Y-2.6181
X4.5669Y-4.5276
X4.9472Y-2.6181
X4.9669Y-4.5276
T7
X4.1732Y-3.9535
X4.1732Y-4.1535
X4.1863Y-3.2283
X4.1863Y-3.4283
X4.1929Y-2.6969
X4.1929Y-2.8969
X4.1929Y-4.5721
X4.1929Y-4.7721
T8
X4.0945Y-2.4016
X4.0945Y-5.3543
X7.3425Y-2.4016
X7.3425Y-5.3543
M30
