%TF.GenerationSoftware,KiCad,Pcbnew,10.0.0*%
%TF.CreationDate,2026-06-05T15:02:46-07:00*%
%TF.ProjectId,rev0_Tx_Circuit,72657630-5f54-4785-9f43-697263756974,0.1*%
%TF.SameCoordinates,Original*%
%TF.FileFunction,Soldermask,Bot*%
%TF.FilePolarity,Negative*%
%FSLAX46Y46*%
G04 Gerber Fmt 4.6, Leading zero omitted, Abs format (unit mm)*
G04 Created by KiCad (PCBNEW 10.0.0) date 2026-06-05 15:02:46*
%MOMM*%
%LPD*%
G01*
G04 APERTURE LIST*
G04 Aperture macros list*
%AMRoundRect*
0 Rectangle with rounded corners*
0 $1 Rounding radius*
0 $2 $3 $4 $5 $6 $7 $8 $9 X,Y pos of 4 corners*
0 Add a 4 corners polygon primitive as box body*
4,1,4,$2,$3,$4,$5,$6,$7,$8,$9,$2,$3,0*
0 Add four circle primitives for the rounded corners*
1,1,$1+$1,$2,$3*
1,1,$1+$1,$4,$5*
1,1,$1+$1,$6,$7*
1,1,$1+$1,$8,$9*
0 Add four rect primitives between the rounded corners*
20,1,$1+$1,$2,$3,$4,$5,0*
20,1,$1+$1,$4,$5,$6,$7,0*
20,1,$1+$1,$6,$7,$8,$9,0*
20,1,$1+$1,$8,$9,$2,$3,0*%
G04 Aperture macros list end*
%ADD10R,1.800000X1.800000*%
%ADD11C,1.800000*%
%ADD12C,1.600000*%
%ADD13C,1.500000*%
%ADD14RoundRect,0.249999X0.850001X-0.850001X0.850001X0.850001X-0.850001X0.850001X-0.850001X-0.850001X0*%
%ADD15C,2.200000*%
%ADD16R,1.700000X1.700000*%
%ADD17C,1.700000*%
%ADD18C,6.400000*%
%ADD19RoundRect,0.250000X-1.050000X1.050000X-1.050000X-1.050000X1.050000X-1.050000X1.050000X1.050000X0*%
%ADD20C,2.600000*%
%ADD21RoundRect,0.250000X0.550000X0.550000X-0.550000X0.550000X-0.550000X-0.550000X0.550000X-0.550000X0*%
%ADD22RoundRect,0.250000X-0.750000X-0.750000X0.750000X-0.750000X0.750000X0.750000X-0.750000X0.750000X0*%
%ADD23C,2.000000*%
%ADD24RoundRect,0.250000X0.750000X0.750000X-0.750000X0.750000X-0.750000X-0.750000X0.750000X-0.750000X0*%
%ADD25RoundRect,0.249999X0.850001X0.850001X-0.850001X0.850001X-0.850001X-0.850001X0.850001X-0.850001X0*%
%ADD26RoundRect,0.249999X-0.850001X-0.850001X0.850001X-0.850001X0.850001X0.850001X-0.850001X0.850001X0*%
G04 APERTURE END LIST*
D10*
%TO.C,D4*%
X143270000Y-136340000D03*
D11*
X140730000Y-136340000D03*
%TD*%
D12*
%TO.C,R11*%
X148270000Y-128340000D03*
X148270000Y-138500000D03*
%TD*%
D13*
%TO.C,INB_GND_TP2*%
X147475000Y-113975000D03*
%TD*%
%TO.C,TX_1_TP1*%
X183000000Y-67405000D03*
%TD*%
%TO.C,TRIG_OUT_GND_TP1*%
X186500000Y-98500000D03*
%TD*%
D10*
%TO.C,D1*%
X120040000Y-136340000D03*
D11*
X117500000Y-136340000D03*
%TD*%
D10*
%TO.C,D6*%
X156270000Y-136340000D03*
D11*
X153730000Y-136340000D03*
%TD*%
D13*
%TO.C,HV_N_TP1*%
X118000000Y-125500000D03*
%TD*%
D14*
%TO.C,D7*%
X115000000Y-90045000D03*
D15*
X115000000Y-79885000D03*
%TD*%
D12*
%TO.C,R27*%
X113000000Y-128340000D03*
X113000000Y-138500000D03*
%TD*%
D16*
%TO.C,JP2*%
X116000000Y-106380000D03*
D17*
X116000000Y-108920000D03*
%TD*%
D12*
%TO.C,R28*%
X124540000Y-128340000D03*
X124540000Y-138500000D03*
%TD*%
D18*
%TO.C,REF\u002A\u002A*%
X104000000Y-136000000D03*
%TD*%
D13*
%TO.C,HV_P_TP1*%
X122975000Y-62000000D03*
%TD*%
%TO.C,INB_TP2*%
X152475000Y-113975000D03*
%TD*%
%TO.C,LV_P_TP1*%
X159620000Y-89240000D03*
%TD*%
D12*
%TO.C,R9*%
X165000000Y-88500000D03*
X175160000Y-88500000D03*
%TD*%
D13*
%TO.C,INA_GND_TP2*%
X147475000Y-108975000D03*
%TD*%
D19*
%TO.C,J3*%
X106332500Y-82000000D03*
D20*
X106332500Y-87080000D03*
%TD*%
D19*
%TO.C,J1*%
X106500000Y-68500000D03*
D20*
X106500000Y-73580000D03*
%TD*%
D16*
%TO.C,JP1*%
X116000000Y-98380000D03*
D17*
X116000000Y-100920000D03*
%TD*%
D21*
%TO.C,C19*%
X112332500Y-93500000D03*
D12*
X109832500Y-93500000D03*
%TD*%
D18*
%TO.C,REF\u002A\u002A*%
X104000000Y-61000000D03*
%TD*%
D16*
%TO.C,J5*%
X170840000Y-96500000D03*
D17*
X170840000Y-93960000D03*
X173380000Y-96500000D03*
X173380000Y-93960000D03*
X175920000Y-96500000D03*
X175920000Y-93960000D03*
X178460000Y-96500000D03*
X178460000Y-93960000D03*
X181000000Y-96500000D03*
X181000000Y-93960000D03*
%TD*%
D13*
%TO.C,TX_2_TP1*%
X182975000Y-105905000D03*
%TD*%
D12*
%TO.C,U3*%
X124720000Y-100240000D03*
X127260000Y-100240000D03*
X142500000Y-100240000D03*
X147580000Y-100240000D03*
X147580000Y-85000000D03*
X142500000Y-85000000D03*
X127260000Y-85000000D03*
X124720000Y-85000000D03*
%TD*%
D22*
%TO.C,C1*%
X130632323Y-64500000D03*
D23*
X135632323Y-64500000D03*
%TD*%
D18*
%TO.C,REF\u002A\u002A*%
X186500000Y-61000000D03*
%TD*%
D13*
%TO.C,LV_N_TP1*%
X160120000Y-94490000D03*
%TD*%
D24*
%TO.C,C2*%
X136500000Y-119500000D03*
D23*
X131500000Y-119500000D03*
%TD*%
D18*
%TO.C,REF\u002A\u002A*%
X186500000Y-136000000D03*
%TD*%
D13*
%TO.C,TRIG_OUT_TP1*%
X186500000Y-93500000D03*
%TD*%
%TO.C,INB_TP1*%
X152500000Y-75475000D03*
%TD*%
%TO.C,INA_TP2*%
X152475000Y-108975000D03*
%TD*%
%TO.C,INB_GND_TP1*%
X147500000Y-75475000D03*
%TD*%
%TO.C,INA_GND_TP1*%
X147500000Y-70475000D03*
%TD*%
%TO.C,TX_2_GND_TP1*%
X187975000Y-105905000D03*
%TD*%
D25*
%TO.C,D8*%
X125660000Y-66500000D03*
D15*
X115500000Y-66500000D03*
%TD*%
D12*
%TO.C,R4*%
X177840000Y-88500000D03*
X188000000Y-88500000D03*
%TD*%
D13*
%TO.C,LV_N_GND_TP1*%
X160120000Y-99490000D03*
%TD*%
%TO.C,HV_P_GND_TP1*%
X117975000Y-62000000D03*
%TD*%
%TO.C,INA_TP1*%
X152500000Y-70475000D03*
%TD*%
D19*
%TO.C,J4*%
X106000000Y-100420000D03*
D20*
X106000000Y-105500000D03*
%TD*%
D26*
%TO.C,D3*%
X116000000Y-115000000D03*
D15*
X126160000Y-115000000D03*
%TD*%
D13*
%TO.C,TX_1_GND_TP1*%
X188000000Y-67405000D03*
%TD*%
D10*
%TO.C,D2*%
X131000000Y-136340000D03*
D11*
X128460000Y-136340000D03*
%TD*%
D12*
%TO.C,R30*%
X136040000Y-128340000D03*
X136040000Y-138500000D03*
%TD*%
%TO.C,C8*%
X154620000Y-96490000D03*
X154620000Y-98990000D03*
%TD*%
D19*
%TO.C,J2*%
X106500000Y-116132323D03*
D20*
X106500000Y-121212323D03*
%TD*%
D13*
%TO.C,HV_N_GND_TP1*%
X123000000Y-125500000D03*
%TD*%
D12*
%TO.C,C20*%
X154620000Y-85240000D03*
X154620000Y-87740000D03*
%TD*%
D13*
%TO.C,LV_P_GND_TP1*%
X159620000Y-84240000D03*
%TD*%
D12*
%TO.C,R2*%
X115500000Y-121000000D03*
X125660000Y-121000000D03*
%TD*%
%TO.C,R14*%
X181500000Y-63180000D03*
X171340000Y-63180000D03*
%TD*%
%TO.C,R32*%
X171340000Y-82905000D03*
X181500000Y-82905000D03*
%TD*%
%TO.C,R17*%
X181555000Y-101405000D03*
X171395000Y-101405000D03*
%TD*%
%TO.C,R37*%
X171475000Y-121405000D03*
X181635000Y-121405000D03*
%TD*%
%TO.C,R1*%
X115500000Y-72000000D03*
X125660000Y-72000000D03*
%TD*%
M02*
