%TF.GenerationSoftware,KiCad,Pcbnew,10.0.0*%
%TF.CreationDate,2026-06-05T15:02:46-07:00*%
%TF.ProjectId,rev0_Tx_Circuit,72657630-5f54-4785-9f43-697263756974,0.1*%
%TF.SameCoordinates,Original*%
%TF.FileFunction,Soldermask,Top*%
%TF.FilePolarity,Negative*%
%FSLAX46Y46*%
G04 Gerber Fmt 4.6, Leading zero omitted, Abs format (unit mm)*
G04 Created by KiCad (PCBNEW 10.0.0) date 2026-06-05 15:02:46*
%MOMM*%
%LPD*%
G01*
G04 APERTURE LIST*
G04 Aperture macros list*
%AMRoundRect*
0 Rectangle with rounded corners*
0 $1 Rounding radius*
0 $2 $3 $4 $5 $6 $7 $8 $9 X,Y pos of 4 corners*
0 Add a 4 corners polygon primitive as box body*
4,1,4,$2,$3,$4,$5,$6,$7,$8,$9,$2,$3,0*
0 Add four circle primitives for the rounded corners*
1,1,$1+$1,$2,$3*
1,1,$1+$1,$4,$5*
1,1,$1+$1,$6,$7*
1,1,$1+$1,$8,$9*
0 Add four rect primitives between the rounded corners*
20,1,$1+$1,$2,$3,$4,$5,0*
20,1,$1+$1,$4,$5,$6,$7,0*
20,1,$1+$1,$6,$7,$8,$9,0*
20,1,$1+$1,$8,$9,$2,$3,0*%
%AMFreePoly0*
4,1,25,-1.500000,1.420000,-1.360000,1.280000,-1.205000,1.155000,-1.035000,1.045000,-0.860000,0.950000,-0.675000,0.875000,-0.480000,0.820000,-0.280000,0.780000,-0.085000,0.765000,0.085000,0.765000,0.280000,0.780000,0.480000,0.820000,0.675000,0.875000,0.860000,0.950000,1.035000,1.045000,1.205000,1.155000,1.360000,1.280000,1.500000,1.420000,1.645000,1.595000,3.555000,1.595000,
3.555000,-0.755000,-3.555000,-0.755000,-3.555000,1.595000,-1.645000,1.595000,-1.500000,1.420000,-1.500000,1.420000,$1*%
G04 Aperture macros list end*
%ADD10R,1.800000X1.800000*%
%ADD11C,1.800000*%
%ADD12C,1.730000*%
%ADD13FreePoly0,180.000000*%
%ADD14FreePoly0,0.000000*%
%ADD15C,1.600000*%
%ADD16C,1.500000*%
%ADD17RoundRect,0.150000X-0.825000X-0.150000X0.825000X-0.150000X0.825000X0.150000X-0.825000X0.150000X0*%
%ADD18RoundRect,0.249999X0.850001X-0.850001X0.850001X0.850001X-0.850001X0.850001X-0.850001X-0.850001X0*%
%ADD19C,2.200000*%
%ADD20RoundRect,0.250000X0.325000X1.100000X-0.325000X1.100000X-0.325000X-1.100000X0.325000X-1.100000X0*%
%ADD21R,1.700000X1.700000*%
%ADD22C,1.700000*%
%ADD23C,6.400000*%
%ADD24RoundRect,0.250000X-0.325000X-1.100000X0.325000X-1.100000X0.325000X1.100000X-0.325000X1.100000X0*%
%ADD25RoundRect,0.250000X-0.262500X-0.450000X0.262500X-0.450000X0.262500X0.450000X-0.262500X0.450000X0*%
%ADD26RoundRect,0.250000X0.262500X0.450000X-0.262500X0.450000X-0.262500X-0.450000X0.262500X-0.450000X0*%
%ADD27RoundRect,0.250000X-0.650000X1.000000X-0.650000X-1.000000X0.650000X-1.000000X0.650000X1.000000X0*%
%ADD28RoundRect,0.250000X-1.050000X1.050000X-1.050000X-1.050000X1.050000X-1.050000X1.050000X1.050000X0*%
%ADD29C,2.600000*%
%ADD30RoundRect,0.250000X0.550000X0.550000X-0.550000X0.550000X-0.550000X-0.550000X0.550000X-0.550000X0*%
%ADD31RoundRect,0.250000X-0.475000X0.250000X-0.475000X-0.250000X0.475000X-0.250000X0.475000X0.250000X0*%
%ADD32RoundRect,0.250000X-0.750000X-0.750000X0.750000X-0.750000X0.750000X0.750000X-0.750000X0.750000X0*%
%ADD33C,2.000000*%
%ADD34RoundRect,0.250000X0.750000X0.750000X-0.750000X0.750000X-0.750000X-0.750000X0.750000X-0.750000X0*%
%ADD35RoundRect,0.075000X-0.387500X-0.075000X0.387500X-0.075000X0.387500X0.075000X-0.387500X0.075000X0*%
%ADD36RoundRect,0.075000X-0.075000X-0.387500X0.075000X-0.387500X0.075000X0.387500X-0.075000X0.387500X0*%
%ADD37RoundRect,0.250000X0.475000X-0.250000X0.475000X0.250000X-0.475000X0.250000X-0.475000X-0.250000X0*%
%ADD38RoundRect,0.249999X0.850001X0.850001X-0.850001X0.850001X-0.850001X-0.850001X0.850001X-0.850001X0*%
%ADD39RoundRect,0.249999X-0.850001X-0.850001X0.850001X-0.850001X0.850001X0.850001X-0.850001X0.850001X0*%
G04 APERTURE END LIST*
D10*
%TO.C,D4*%
X143270000Y-136340000D03*
D11*
X140730000Y-136340000D03*
%TD*%
D12*
%TO.C,J8*%
X186025000Y-73000000D03*
D13*
X186025000Y-70200000D03*
D14*
X186025000Y-75800000D03*
%TD*%
D15*
%TO.C,R11*%
X148270000Y-128340000D03*
X148270000Y-138500000D03*
%TD*%
D16*
%TO.C,INB_GND_TP2*%
X147475000Y-113975000D03*
%TD*%
%TO.C,TX_1_TP1*%
X183000000Y-67405000D03*
%TD*%
D17*
%TO.C,Q2*%
X170525000Y-109595000D03*
X170525000Y-110865000D03*
X170525000Y-112135000D03*
X170525000Y-113405000D03*
X175475000Y-113405000D03*
X175475000Y-112135000D03*
X175475000Y-110865000D03*
X175475000Y-109595000D03*
%TD*%
D16*
%TO.C,TRIG_OUT_GND_TP1*%
X186500000Y-98500000D03*
%TD*%
D10*
%TO.C,D1*%
X120040000Y-136340000D03*
D11*
X117500000Y-136340000D03*
%TD*%
D10*
%TO.C,D6*%
X156270000Y-136340000D03*
D11*
X153730000Y-136340000D03*
%TD*%
D16*
%TO.C,HV_N_TP1*%
X118000000Y-125500000D03*
%TD*%
D18*
%TO.C,D7*%
X115000000Y-90045000D03*
D19*
X115000000Y-79885000D03*
%TD*%
D20*
%TO.C,C4*%
X135950000Y-110500000D03*
X133000000Y-110500000D03*
%TD*%
D15*
%TO.C,R27*%
X113000000Y-128340000D03*
X113000000Y-138500000D03*
%TD*%
D21*
%TO.C,JP2*%
X116000000Y-106380000D03*
D22*
X116000000Y-108920000D03*
%TD*%
D15*
%TO.C,R28*%
X124540000Y-128340000D03*
X124540000Y-138500000D03*
%TD*%
D23*
%TO.C,REF\u002A\u002A*%
X104000000Y-136000000D03*
%TD*%
D16*
%TO.C,HV_P_TP1*%
X122975000Y-62000000D03*
%TD*%
%TO.C,INB_TP2*%
X152475000Y-113975000D03*
%TD*%
D24*
%TO.C,C11*%
X168550000Y-80000000D03*
X171500000Y-80000000D03*
%TD*%
D16*
%TO.C,LV_P_TP1*%
X159620000Y-89240000D03*
%TD*%
D17*
%TO.C,Q1*%
X170550000Y-71095000D03*
X170550000Y-72365000D03*
X170550000Y-73635000D03*
X170550000Y-74905000D03*
X175500000Y-74905000D03*
X175500000Y-73635000D03*
X175500000Y-72365000D03*
X175500000Y-71095000D03*
%TD*%
D25*
%TO.C,R16*%
X156562500Y-113975000D03*
X158387500Y-113975000D03*
%TD*%
D15*
%TO.C,R9*%
X165000000Y-88500000D03*
X175160000Y-88500000D03*
%TD*%
D26*
%TO.C,R36*%
X158387500Y-108975000D03*
X156562500Y-108975000D03*
%TD*%
D16*
%TO.C,INA_GND_TP2*%
X147475000Y-108975000D03*
%TD*%
D27*
%TO.C,D5*%
X179525000Y-75000000D03*
X179525000Y-79000000D03*
%TD*%
D28*
%TO.C,J3*%
X106332500Y-82000000D03*
D29*
X106332500Y-87080000D03*
%TD*%
D28*
%TO.C,J1*%
X106500000Y-68500000D03*
D29*
X106500000Y-73580000D03*
%TD*%
D20*
%TO.C,C14*%
X171500000Y-67000000D03*
X168550000Y-67000000D03*
%TD*%
D21*
%TO.C,JP1*%
X116000000Y-98380000D03*
D22*
X116000000Y-100920000D03*
%TD*%
D30*
%TO.C,C19*%
X112332500Y-93500000D03*
D15*
X109832500Y-93500000D03*
%TD*%
D24*
%TO.C,C17*%
X168475000Y-118310000D03*
X171425000Y-118310000D03*
%TD*%
D31*
%TO.C,C15*%
X167950000Y-112360000D03*
X167950000Y-114260000D03*
%TD*%
D23*
%TO.C,REF\u002A\u002A*%
X104000000Y-61000000D03*
%TD*%
D25*
%TO.C,R13*%
X156008750Y-75475000D03*
X157833750Y-75475000D03*
%TD*%
D27*
%TO.C,D10*%
X179525000Y-67000000D03*
X179525000Y-71000000D03*
%TD*%
D21*
%TO.C,J5*%
X170840000Y-96500000D03*
D22*
X170840000Y-93960000D03*
X173380000Y-96500000D03*
X173380000Y-93960000D03*
X175920000Y-96500000D03*
X175920000Y-93960000D03*
X178460000Y-96500000D03*
X178460000Y-93960000D03*
X181000000Y-96500000D03*
X181000000Y-93960000D03*
%TD*%
D31*
%TO.C,C9*%
X168025000Y-74650000D03*
X168025000Y-76550000D03*
%TD*%
D16*
%TO.C,TX_2_TP1*%
X182975000Y-105905000D03*
%TD*%
D31*
%TO.C,C12*%
X168025000Y-70650000D03*
X168025000Y-72550000D03*
%TD*%
D26*
%TO.C,R12*%
X157833750Y-72975000D03*
X156008750Y-72975000D03*
%TD*%
D15*
%TO.C,U3*%
X124720000Y-100240000D03*
X127260000Y-100240000D03*
X142500000Y-100240000D03*
X147580000Y-100240000D03*
X147580000Y-85000000D03*
X142500000Y-85000000D03*
X127260000Y-85000000D03*
X124720000Y-85000000D03*
%TD*%
D32*
%TO.C,C1*%
X130632323Y-64500000D03*
D33*
X135632323Y-64500000D03*
%TD*%
D23*
%TO.C,REF\u002A\u002A*%
X186500000Y-61000000D03*
%TD*%
D16*
%TO.C,LV_N_TP1*%
X160120000Y-94490000D03*
%TD*%
D34*
%TO.C,C2*%
X136500000Y-119500000D03*
D33*
X131500000Y-119500000D03*
%TD*%
D23*
%TO.C,REF\u002A\u002A*%
X186500000Y-136000000D03*
%TD*%
D12*
%TO.C,J9*%
X186000000Y-111500000D03*
D13*
X186000000Y-108700000D03*
D14*
X186000000Y-114300000D03*
%TD*%
D16*
%TO.C,TRIG_OUT_TP1*%
X186500000Y-93500000D03*
%TD*%
%TO.C,INB_TP1*%
X152500000Y-75475000D03*
%TD*%
%TO.C,INA_TP2*%
X152475000Y-108975000D03*
%TD*%
%TO.C,INB_GND_TP1*%
X147500000Y-75475000D03*
%TD*%
D35*
%TO.C,U1*%
X160612500Y-72175000D03*
X160612500Y-72975000D03*
X160612500Y-73775000D03*
D36*
X161700000Y-74862500D03*
X162500000Y-74862500D03*
X163300000Y-74862500D03*
D35*
X164387500Y-73775000D03*
X164387500Y-72975000D03*
X164387500Y-72175000D03*
D36*
X163300000Y-71087500D03*
X162500000Y-71087500D03*
X161700000Y-71087500D03*
D21*
X162500000Y-72975000D03*
%TD*%
D37*
%TO.C,C16*%
X162475000Y-117425000D03*
X162475000Y-115525000D03*
%TD*%
D20*
%TO.C,C21*%
X171425000Y-105310000D03*
X168475000Y-105310000D03*
%TD*%
D16*
%TO.C,INA_GND_TP1*%
X147500000Y-70475000D03*
%TD*%
D31*
%TO.C,C18*%
X167950000Y-108360000D03*
X167950000Y-110260000D03*
%TD*%
D16*
%TO.C,TX_2_GND_TP1*%
X187975000Y-105905000D03*
%TD*%
D35*
%TO.C,U2*%
X160587500Y-110675000D03*
X160587500Y-111475000D03*
X160587500Y-112275000D03*
D36*
X161675000Y-113362500D03*
X162475000Y-113362500D03*
X163275000Y-113362500D03*
D35*
X164362500Y-112275000D03*
X164362500Y-111475000D03*
X164362500Y-110675000D03*
D36*
X163275000Y-109587500D03*
X162475000Y-109587500D03*
X161675000Y-109587500D03*
D21*
X162475000Y-111475000D03*
%TD*%
D38*
%TO.C,D8*%
X125660000Y-66500000D03*
D19*
X115500000Y-66500000D03*
%TD*%
D15*
%TO.C,R4*%
X177840000Y-88500000D03*
X188000000Y-88500000D03*
%TD*%
D16*
%TO.C,LV_N_GND_TP1*%
X160120000Y-99490000D03*
%TD*%
%TO.C,HV_P_GND_TP1*%
X117975000Y-62000000D03*
%TD*%
D37*
%TO.C,C7*%
X162500000Y-68925000D03*
X162500000Y-67025000D03*
%TD*%
D16*
%TO.C,INA_TP1*%
X152500000Y-70475000D03*
%TD*%
D26*
%TO.C,R31*%
X157833750Y-70475000D03*
X156008750Y-70475000D03*
%TD*%
D28*
%TO.C,J4*%
X106000000Y-100420000D03*
D29*
X106000000Y-105500000D03*
%TD*%
D27*
%TO.C,D9*%
X179450000Y-113310000D03*
X179450000Y-117310000D03*
%TD*%
D39*
%TO.C,D3*%
X116000000Y-115000000D03*
D19*
X126160000Y-115000000D03*
%TD*%
D37*
%TO.C,C10*%
X162500000Y-78925000D03*
X162500000Y-77025000D03*
%TD*%
D16*
%TO.C,TX_1_GND_TP1*%
X188000000Y-67405000D03*
%TD*%
D10*
%TO.C,D2*%
X131000000Y-136340000D03*
D11*
X128460000Y-136340000D03*
%TD*%
D15*
%TO.C,R30*%
X136040000Y-128340000D03*
X136040000Y-138500000D03*
%TD*%
%TO.C,C8*%
X154620000Y-96490000D03*
X154620000Y-98990000D03*
%TD*%
D28*
%TO.C,J2*%
X106500000Y-116132323D03*
D29*
X106500000Y-121212323D03*
%TD*%
D37*
%TO.C,C13*%
X162475000Y-107425000D03*
X162475000Y-105525000D03*
%TD*%
D20*
%TO.C,C5*%
X134475000Y-73500000D03*
X131525000Y-73500000D03*
%TD*%
D16*
%TO.C,HV_N_GND_TP1*%
X123000000Y-125500000D03*
%TD*%
D27*
%TO.C,D11*%
X179450000Y-105310000D03*
X179450000Y-109310000D03*
%TD*%
D15*
%TO.C,C20*%
X154620000Y-85240000D03*
X154620000Y-87740000D03*
%TD*%
D26*
%TO.C,R15*%
X158387500Y-111905000D03*
X156562500Y-111905000D03*
%TD*%
D16*
%TO.C,LV_P_GND_TP1*%
X159620000Y-84240000D03*
%TD*%
D15*
%TO.C,R2*%
X115500000Y-121000000D03*
X125660000Y-121000000D03*
%TD*%
%TO.C,R14*%
X181500000Y-63180000D03*
X171340000Y-63180000D03*
%TD*%
%TO.C,R32*%
X171340000Y-82905000D03*
X181500000Y-82905000D03*
%TD*%
%TO.C,R17*%
X181555000Y-101405000D03*
X171395000Y-101405000D03*
%TD*%
%TO.C,R37*%
X171475000Y-121405000D03*
X181635000Y-121405000D03*
%TD*%
%TO.C,R1*%
X115500000Y-72000000D03*
X125660000Y-72000000D03*
%TD*%
M02*
